<svg width="24.273926" height="24.878937" viewBox="0 0 24.2739 24.8789" fill="none" xmlns="http://www.w3.org/2000/svg" xmlns:xlink="http://www.w3.org/1999/xlink">
	<desc>
			Created with Pixso.
	</desc>
	<defs/>
	<path id="Vector" d="M18.56 14.69C19.66 14.85 19.71 15.11 19.86 19.7L20.02 24.5L4.32 24.5L4.32 19.8C4.32 15.26 4.37 15.06 5.62 14.59C6.61 14.22 6.93 13.7 6.93 12.5C6.93 11.88 6.93 11.51 6.74 11.28C6.46 10.93 5.75 10.93 3.95 10.93L0.93 10.88L4.32 7.7C6.2 5.98 8.8 3.63 10.16 2.53L12.56 0.5L17.99 5.66L23.36 10.88L20.39 10.93L17.36 10.93L17.36 12.71C17.36 14.17 17.57 14.53 18.56 14.69ZM12.2 1.54C12.04 1.59 9.9 3.47 7.45 5.72L3.01 9.89L12.14 9.84L21.27 9.84L16.89 5.72C14.49 3.42 12.35 1.54 12.2 1.54ZM7.45 14.59L7.45 10.93L16.84 10.93L16.84 14.59L7.45 14.59ZM5.1 15.37L4.79 23.98L19.5 23.98L19.19 15.37L5.1 15.37Z" fill="#141414" fill-opacity="1.000000" fill-rule="evenodd"/>
	<path id="Vector" d="M18.56 14.69C17.57 14.53 17.36 14.17 17.36 12.71L17.36 10.93L20.39 10.93L23.36 10.88L17.99 5.66L12.56 0.5L10.16 2.53C8.8 3.63 6.2 5.98 4.32 7.7L0.93 10.88L3.95 10.93C5.75 10.93 6.46 10.93 6.74 11.28C6.93 11.51 6.93 11.88 6.93 12.5C6.93 13.7 6.61 14.22 5.62 14.59C4.37 15.06 4.32 15.26 4.32 19.8L4.32 24.5L20.02 24.5L19.86 19.7C19.71 15.11 19.66 14.85 18.56 14.69ZM12.2 1.54C12.35 1.54 14.49 3.42 16.89 5.72L21.27 9.84L12.14 9.84L3.01 9.89L7.45 5.72C9.9 3.47 12.04 1.59 12.2 1.54ZM5.1 15.37L19.19 15.37L19.5 23.98L4.79 23.98L5.1 15.37ZM7.45 10.93L16.84 10.93L16.84 14.59L7.45 14.59L7.45 10.93Z" stroke="#141414" stroke-opacity="1.000000" stroke-width="0.750000"/>
</svg>
