<svg width="24.873047" height="23.750000" viewBox="0 0 24.873 23.75" fill="none" xmlns="http://www.w3.org/2000/svg" xmlns:xlink="http://www.w3.org/1999/xlink">
	<desc>
			Created with Pixso.
	</desc>
	<defs/>
	<path id="Vector" d="M23.16 4.37C22.55 4.7 22.39 6.83 22.39 14.06L22.39 23.37L2.48 23.37L2.48 14.06C2.48 6.83 2.31 4.7 1.7 4.37C1.32 4.15 0.87 3.11 0.71 2.18L0.43 0.37L24.43 0.37L24.16 2.18C23.99 3.11 23.55 4.15 23.16 4.37ZM23.38 2.18L23.55 0.92L1.37 0.92L1.37 3.66L12.32 3.55L12.34 3.55C23.16 3.38 23.22 3.38 23.38 2.18ZM18.51 22.82L18.51 17.13C18.51 16.9 18.51 16.69 18.52 16.48C18.52 13.58 18.52 12.15 17.8 11.45C17.1 10.77 15.73 10.77 13.02 10.77L13.02 10.77C12.83 10.77 12.63 10.77 12.43 10.77C12.23 10.77 12.03 10.77 11.84 10.77L11.84 10.77C9.14 10.77 7.76 10.77 7.06 11.45C6.34 12.15 6.34 13.58 6.35 16.48L6.35 16.48C6.35 16.69 6.35 16.9 6.35 17.13L6.35 22.82L3.03 22.82L3.03 4.2L21.83 4.2L21.83 22.82L18.51 22.82ZM7.9 11.87C7.01 11.87 6.9 12.53 6.9 17.35L6.9 22.82L8.45 22.82C9.94 22.82 10 22.71 10 20.25C9.94 18 10.16 17.51 11.21 17.07C12.21 16.63 12.38 16.25 12.16 14.88C11.82 13.29 11.88 13.29 12.76 14.33C14.92 16.96 16.03 21.73 14.42 21.73C13.98 21.73 13.7 21.12 13.7 20.36C13.7 18.5 13.32 18.22 11.93 19.1C10.44 19.97 10.39 22.27 11.82 22.27C12.38 22.27 13.98 22.44 15.42 22.6L17.96 22.99L17.96 11.92L15.53 11.6C14.2 11.38 12.16 11.38 10.99 11.54C10.13 11.66 9.17 11.75 8.52 11.81C8.25 11.83 8.04 11.85 7.9 11.87Z" fill="#141414" fill-opacity="1.000000" fill-rule="evenodd"/>
	<path id="Vector" d="M23.16 4.37C23.55 4.15 23.99 3.11 24.16 2.18L24.43 0.37L0.43 0.37L0.71 2.18C0.87 3.11 1.32 4.15 1.7 4.37C2.31 4.7 2.48 6.83 2.48 14.06L2.48 23.37L22.39 23.37L22.39 14.06C22.39 6.83 22.55 4.7 23.16 4.37ZM18.51 17.13C18.51 16.9 18.51 16.69 18.52 16.48C18.52 13.58 18.52 12.15 17.8 11.45C17.1 10.77 15.73 10.77 13.02 10.77L13.02 10.77C12.83 10.77 12.63 10.77 12.43 10.77C12.23 10.77 12.03 10.77 11.84 10.77L11.84 10.77C9.14 10.77 7.76 10.77 7.06 11.45C6.34 12.15 6.34 13.58 6.35 16.48L6.35 16.48C6.35 16.69 6.35 16.9 6.35 17.13L6.35 22.82L3.03 22.82L3.03 4.2L21.83 4.2L21.83 22.82L18.51 22.82L18.51 17.13ZM7.9 11.87C8.04 11.85 8.25 11.83 8.52 11.81C9.17 11.75 10.13 11.66 10.99 11.54C12.16 11.38 14.2 11.38 15.53 11.6L17.96 11.92L17.96 22.99L15.42 22.6C13.98 22.44 12.38 22.27 11.82 22.27C10.39 22.27 10.44 19.97 11.93 19.1C13.32 18.22 13.7 18.5 13.7 20.36C13.7 21.12 13.98 21.73 14.42 21.73C16.03 21.73 14.92 16.96 12.76 14.33C11.88 13.29 11.82 13.29 12.16 14.88C12.38 16.25 12.21 16.63 11.21 17.07C10.16 17.51 9.94 18 10 20.25C10 22.71 9.94 22.82 8.45 22.82L6.9 22.82L6.9 17.35C6.9 12.53 7.01 11.87 7.9 11.87ZM23.38 2.18C23.22 3.38 23.16 3.38 12.34 3.55L12.32 3.55L1.37 3.66L1.37 0.92L23.55 0.92L23.38 2.18ZM12.34 3.55C12.34 3.55 12.33 3.55 12.32 3.55" stroke="#141414" stroke-opacity="1.000000" stroke-width="0.750000"/>
</svg>
