<svg width="24.000000" height="24.000000" viewBox="0 0 24 24" fill="none" xmlns="http://www.w3.org/2000/svg" xmlns:xlink="http://www.w3.org/1999/xlink">
	<desc>
			Created with Pixso.
	</desc>
	<defs/>
	<path id="Vector" d="M21.75 14.07C21.86 4.7 21.92 4.26 23.01 3.98C23.89 3.76 24.11 3.32 23.94 1.82L23.78 0L0.21 0L0.05 1.82C-0.12 3.32 0.1 3.76 0.98 3.98C2.07 4.26 2.13 4.65 2.13 13.79C2.13 19.05 2.29 23.54 2.51 23.76C2.73 23.93 7.12 24.04 12.21 23.98L21.59 23.81L21.75 14.07ZM10.35 22.1C10.35 21.1 11.83 19.72 12.98 19.66C13.37 19.66 13.64 20.32 13.64 21.32C13.64 22.82 13.48 22.98 12 22.98C10.84 22.98 10.35 22.71 10.35 22.1ZM15.72 22.98L17.42 22.98L17.75 11.9L6.51 11.9L6.51 22.98L8.16 22.98C9.69 22.98 9.75 22.87 9.2 21.54C8.6 19.83 8.98 18.22 10.13 17.78C10.57 17.61 11.12 16.95 11.34 16.34C11.72 15.34 11.83 15.34 13.53 16.95C15.34 18.66 15.45 19.33 14.41 22.1C14.13 22.76 14.46 22.98 15.72 22.98ZM3.22 17.44C3.22 12.29 3.28 11.9 4.32 11.9C5.36 11.9 5.42 12.29 5.42 17.44C5.42 22.6 5.36 22.98 4.32 22.98C3.28 22.98 3.22 22.6 3.22 17.44ZM4.32 4.15C3.33 4.15 3.22 4.54 3.22 7.47C3.22 10.41 3.33 10.8 4.32 10.8C5.31 10.8 5.42 10.41 5.42 7.47C5.42 4.54 5.31 4.15 4.32 4.15ZM6.51 10.8L6.51 4.15L17.48 4.15L17.48 10.8L6.51 10.8ZM13.09 7.03C14.79 5.98 15.67 6.31 14.24 7.47C12.6 8.91 10.79 8.86 9.53 7.47C8.43 6.25 9.2 5.98 10.9 7.03C11.78 7.58 12.21 7.58 13.09 7.03ZM12.05 0.83C1.53 0.83 -0.12 1.05 0.76 2.49C0.98 2.82 5.31 3.04 12.05 3.04C22.57 3.04 22.96 2.99 22.96 1.93C22.96 0.88 22.57 0.83 12.05 0.83ZM18.57 7.47C18.57 4.54 18.68 4.15 19.67 4.15C20.66 4.15 20.77 4.54 20.77 7.47C20.77 10.41 20.66 10.8 19.67 10.8C18.68 10.8 18.57 10.41 18.57 7.47ZM19.67 11.9C18.63 11.9 18.57 12.29 18.57 17.44C18.57 22.6 18.63 22.98 19.67 22.98C20.71 22.98 20.77 22.6 20.77 17.44C20.77 12.29 20.71 11.9 19.67 11.9Z" fill="#141414" fill-opacity="1.000000" fill-rule="evenodd"/>
</svg>
