<svg width="24.509766" height="23.481400" viewBox="0 0 24.5098 23.4814" fill="none" xmlns="http://www.w3.org/2000/svg" xmlns:xlink="http://www.w3.org/1999/xlink">
	<desc>
			Created with Pixso.
	</desc>
	<defs/>
	<path id="Vector" d="M24.25 7.05L21.6 6.89C19.33 6.72 18.66 6.39 17.17 4.74C16.17 3.64 15.39 2.42 15.39 2.04C15.39 0.71 14.18 0.11 12.02 0.27C10.41 0.38 9.8 0.71 9.58 1.6C9.41 2.26 8.53 3.64 7.53 4.74C6.04 6.39 5.37 6.72 3.1 6.89L0.44 7.05L0.28 14.44C0.22 18.52 0.28 22.22 0.39 22.6C0.61 23.21 3.1 23.32 12.46 23.21L24.25 23.04L24.25 7.05ZM8.58 4.79C9.91 3.64 10.52 2.64 10.36 2.09C10.08 1.43 10.52 1.26 12.35 1.26C14.18 1.26 14.62 1.43 14.34 2.09C14.18 2.64 14.84 3.64 16.11 4.85L18.16 6.72L12.35 6.72L6.53 6.67L8.58 4.79ZM17.83 18.91L21.21 18.91L21.21 10.09L3.49 10.09L3.49 18.91L10.08 18.91L9.52 17.14C9.25 16.15 9.03 15.32 9.03 15.27C9.03 15.21 9.8 14.39 10.74 13.45L12.46 11.63L14.07 13.17C15.06 14.17 15.56 15.05 15.39 15.71C15.23 16.26 14.95 17.2 14.79 17.8C14.51 18.8 14.73 18.91 17.83 18.91ZM1.27 7.88L4.76 7.83C6.64 7.77 9.8 7.66 11.79 7.55C13.79 7.38 17.22 7.44 19.44 7.66L23.42 7.99L23.42 22.22L1.27 22.22L1.27 7.88ZM2.49 13.89L2.66 9.26L22.04 9.26L22.04 19.73L12.46 19.9C4.82 20.01 2.88 19.9 2.6 19.29C2.44 18.85 2.38 16.43 2.49 13.89ZM13.57 15.43C12.96 14.99 10.69 17.03 10.69 18.03C10.69 18.63 11.19 18.91 12.35 18.91C13.84 18.91 14.01 18.74 14.01 17.31C14.01 16.37 13.84 15.54 13.57 15.43Z" fill="#141414" fill-opacity="1.000000" fill-rule="evenodd"/>
	<path id="Vector" d="M21.6 6.89C19.33 6.72 18.66 6.39 17.17 4.74C16.17 3.64 15.39 2.42 15.39 2.04C15.39 0.71 14.18 0.11 12.02 0.27C10.41 0.38 9.8 0.71 9.58 1.6C9.41 2.26 8.53 3.64 7.53 4.74C6.04 6.39 5.37 6.72 3.1 6.89L0.44 7.05L0.28 14.44C0.22 18.52 0.28 22.22 0.39 22.6C0.61 23.21 3.1 23.32 12.46 23.21L24.25 23.04L24.25 7.05L21.6 6.89ZM4.76 7.83C6.64 7.77 9.8 7.66 11.79 7.55C13.79 7.38 17.22 7.44 19.44 7.66L23.42 7.99L23.42 22.22L1.27 22.22L1.27 7.88L4.76 7.83ZM2.49 13.89C2.38 16.43 2.44 18.85 2.6 19.29C2.88 19.9 4.82 20.01 12.46 19.9L22.04 19.73L22.04 9.26L2.66 9.26L2.49 13.89ZM17.83 18.91C14.73 18.91 14.51 18.8 14.79 17.8C14.95 17.2 15.23 16.26 15.39 15.71C15.56 15.05 15.06 14.17 14.07 13.17L12.46 11.63L10.74 13.45C9.8 14.39 9.03 15.21 9.03 15.27C9.03 15.32 9.25 16.15 9.52 17.14L10.08 18.91L3.49 18.91L3.49 10.09L21.21 10.09L21.21 18.91L17.83 18.91ZM13.57 15.43C13.84 15.54 14.01 16.37 14.01 17.31C14.01 18.74 13.84 18.91 12.35 18.91C11.19 18.91 10.69 18.63 10.69 18.03C10.69 17.03 12.96 14.99 13.57 15.43ZM10.36 2.09C10.08 1.43 10.52 1.26 12.35 1.26C14.18 1.26 14.62 1.43 14.34 2.09C14.18 2.64 14.84 3.64 16.11 4.85L18.16 6.72L12.35 6.72L6.53 6.67L8.58 4.79C9.91 3.64 10.52 2.64 10.36 2.09Z" stroke="#141414" stroke-opacity="1.000000" stroke-width="0.500000"/>
</svg>
