<svg width="25.072266" height="24.750000" viewBox="0 0 25.0723 24.75" fill="none" xmlns="http://www.w3.org/2000/svg" xmlns:xlink="http://www.w3.org/1999/xlink">
	<desc>
			Created with Pixso.
	</desc>
	<defs/>
	<path id="Vector" d="M23.84 2.26C23.5 3.28 23.1 8.6 22.98 14.26L22.81 24.37L2.25 24.37L2.08 14.26C1.97 8.6 1.56 3.28 1.22 2.26L0.53 0.37L24.53 0.37L23.84 2.26ZM6.79 6.66L6.79 14.08L18.27 14.08L18.27 6.66L6.79 6.66ZM3.06 23.11C2.89 22.71 2.71 18.08 2.66 12.77L2.48 3.23L22.29 3.23L22.29 23.8L12.82 23.8C5.7 23.8 3.23 23.63 3.06 23.11ZM17.47 16.66C18.67 16.66 18.85 16.94 18.85 18.83L18.85 20.94L6.22 20.94L6.22 16.94L10.98 17C13.56 17.06 15.23 17.17 14.71 17.34C14.2 17.46 13.62 18.03 13.51 18.54C13.28 19.34 13.22 19.34 13.16 18.6C13.11 17.91 12.36 17.68 9.89 17.63C6.96 17.57 6.73 17.68 6.9 18.83C7.08 19.91 7.48 20.03 12.7 20.2L18.27 20.37L18.27 18.94C18.27 18.08 17.93 17.51 17.47 17.51C17.01 17.51 16.49 17.34 16.38 17.11C16.21 16.83 16.72 16.66 17.47 16.66ZM18.85 6.08L18.85 14.66L6.22 14.66L6.22 6.08L18.85 6.08ZM12.59 0.94C2.54 0.94 0.88 1.17 2.02 2.31C2.25 2.48 7.08 2.6 12.76 2.54C20.4 2.43 23.1 2.2 23.33 1.68C23.5 1.11 21.09 0.94 12.59 0.94Z" fill="#141414" fill-opacity="1.000000" fill-rule="evenodd"/>
	<path id="Vector" d="M23.84 2.26L24.53 0.37L0.53 0.37L1.22 2.26C1.56 3.28 1.97 8.6 2.08 14.26L2.25 24.37L22.81 24.37L22.98 14.26C23.1 8.6 23.5 3.28 23.84 2.26ZM2.66 12.77L2.48 3.23L22.29 3.23L22.29 23.8L12.82 23.8C5.7 23.8 3.23 23.63 3.06 23.11C2.89 22.71 2.71 18.08 2.66 12.77ZM17.47 16.66C16.72 16.66 16.21 16.83 16.38 17.11C16.49 17.34 17.01 17.51 17.47 17.51C17.93 17.51 18.27 18.08 18.27 18.94L18.27 20.37L12.7 20.2C7.48 20.03 7.08 19.91 6.9 18.83C6.73 17.68 6.96 17.57 9.89 17.63C12.36 17.68 13.11 17.91 13.16 18.6C13.22 19.34 13.28 19.34 13.51 18.54C13.62 18.03 14.2 17.46 14.71 17.34C15.23 17.17 13.56 17.06 10.98 17L6.22 16.94L6.22 20.94L18.85 20.94L18.85 18.83C18.85 16.94 18.67 16.66 17.47 16.66ZM12.59 0.94C21.09 0.94 23.5 1.11 23.33 1.68C23.1 2.2 20.4 2.43 12.76 2.54C7.08 2.6 2.25 2.48 2.02 2.31C0.88 1.17 2.54 0.94 12.59 0.94ZM18.85 6.08L6.22 6.08L6.22 14.66L18.85 14.66L18.85 6.08ZM6.79 6.66L18.27 6.66L18.27 14.08L6.79 14.08L6.79 6.66Z" stroke="#141414" stroke-opacity="1.000000" stroke-width="0.750000"/>
</svg>
