<svg width="22.812500" height="24.750000" viewBox="0 0 22.8125 24.75" fill="none" xmlns="http://www.w3.org/2000/svg" xmlns:xlink="http://www.w3.org/1999/xlink">
	<desc>
			Created with Pixso.
	</desc>
	<defs/>
	<path id="Vector" d="M22.11 22.7C21.96 21.76 21.55 20.77 21.18 20.56C20.62 20.25 20.46 18.06 20.46 10.28L20.46 0.37L1.92 0.37L1.92 10.28C1.92 18.63 1.81 20.3 1.14 20.51C0.68 20.72 0.37 21.5 0.37 22.6L0.37 24.37L22.37 24.37L22.11 22.7ZM21.55 21.24L21.39 22.44C21.24 23.59 21.18 23.59 11.11 23.74L11.09 23.74L0.89 23.85L0.89 21.24L21.55 21.24ZM2.43 0.89L2.43 20.72L19.95 20.72L19.95 0.89L2.43 0.89ZM16.86 18.63L16.86 6.68L5.78 6.89L5.47 18.63L16.86 18.63ZM16.34 18.11L14.85 18.11C13.41 18.11 13.35 18 13.61 16.39C13.77 15.24 13.51 13.88 12.74 12.21C11.45 9.45 10.57 8.98 11.04 11.33C11.24 12.58 11.19 12.84 10.57 12.63C9.28 12.11 8.46 13.73 8.77 16.02C9.03 18.06 8.97 18.11 7.53 18.11L6.04 18.11L6.04 7.67L16.34 7.67L16.34 18.11ZM12.22 14.46C11.24 13.83 9.64 15.03 9.64 16.39C9.64 18.21 12.07 18.06 12.53 16.23C12.74 15.34 12.63 14.72 12.22 14.46Z" fill="#141414" fill-opacity="1.000000" fill-rule="evenodd"/>
	<path id="Vector" d="M21.18 20.56C20.62 20.25 20.46 18.06 20.46 10.28L20.46 0.37L1.92 0.37L1.92 10.28C1.92 18.63 1.81 20.3 1.14 20.51C0.68 20.72 0.37 21.5 0.37 22.6L0.37 24.37L22.37 24.37L22.11 22.7C21.96 21.76 21.55 20.77 21.18 20.56ZM21.39 22.44C21.24 23.59 21.18 23.59 11.11 23.74C11.1 23.74 11.09 23.74 11.09 23.74L0.89 23.85L0.89 21.24L21.55 21.24L21.39 22.44ZM14.85 18.11C13.41 18.11 13.35 18 13.61 16.39C13.77 15.24 13.51 13.88 12.74 12.21C11.45 9.45 10.57 8.98 11.04 11.33C11.24 12.58 11.19 12.84 10.57 12.63C9.28 12.11 8.46 13.73 8.77 16.02C9.03 18.06 8.97 18.11 7.53 18.11L6.04 18.11L6.04 7.67L16.34 7.67L16.34 18.11L14.85 18.11ZM12.22 14.46C12.63 14.72 12.74 15.34 12.53 16.23C12.07 18.06 9.64 18.21 9.64 16.39C9.64 15.03 11.24 13.83 12.22 14.46ZM2.43 0.89L19.95 0.89L19.95 20.72L2.43 20.72L2.43 0.89ZM16.86 6.68L5.78 6.89L5.47 18.63L16.86 18.63L16.86 6.68ZM11.09 23.74L11.11 23.74" stroke="#141414" stroke-opacity="1.000000" stroke-width="0.750000"/>
</svg>
