<svg width="24.250000" height="24.249855" viewBox="0 0 24.25 24.2499" fill="none" xmlns="http://www.w3.org/2000/svg" xmlns:xlink="http://www.w3.org/1999/xlink">
	<desc>
			Created with Pixso.
	</desc>
	<defs/>
	<path d="M14.63 20.77C8.6 20.77 7.12 20.77 6.67 21.44C6.53 21.66 6.49 21.94 6.44 22.32L6.43 22.42C6.32 23.41 5.87 23.96 5.14 24.07C3.69 24.29 3.19 23.8 3.19 22.2C3.19 21.27 2.8 20.94 1.68 20.77L0.12 20.61L0.12 6.86L1.63 6.7C2.91 6.53 3.13 6.26 3.3 4.5L3.47 2.47L6.82 2.41C10.17 2.33 11.15 2.31 11.44 1.86C11.56 1.67 11.56 1.41 11.56 1.04C11.56 0.38 11.84 -0.01 12.29 0.16C12.62 0.27 12.9 0.76 12.79 1.26C12.68 1.97 13.35 2.19 16.7 2.3L20.77 2.47L20.72 4.39C20.72 6.1 20.88 6.37 22.39 6.59L24.12 6.86L24.12 20.61L22.61 20.77C21.44 20.94 21.11 21.27 20.94 22.42C20.83 23.58 20.49 23.91 19.38 23.91C18.32 23.91 17.92 23.58 17.7 22.31C17.42 20.83 17.25 20.77 14.63 20.77ZM5.42 3.29C4.81 3.29 4.31 3.57 4.31 3.84C4.31 4.17 4.81 4.39 5.42 4.39C6.04 4.39 6.54 4.17 6.54 3.84C6.54 3.57 6.04 3.29 5.42 3.29ZM7.1 3.84C7.1 3.57 7.71 3.29 8.49 3.29C9.27 3.29 9.89 3.57 9.89 3.84C9.89 4.17 9.27 4.39 8.49 4.39C7.71 4.39 7.1 4.17 7.1 3.84ZM13.24 3.51C13.24 2.47 10.95 2.63 10.56 3.73C10.45 4.12 10.89 4.39 11.79 4.39C12.73 4.39 13.24 4.12 13.24 3.51ZM13.79 3.84C13.79 3.57 14.41 3.29 15.19 3.29C15.97 3.29 16.59 3.57 16.59 3.84C16.59 4.17 15.97 4.39 15.19 4.39C14.41 4.39 13.79 4.17 13.79 3.84ZM18.54 3.29C17.76 3.29 17.14 3.57 17.14 3.84C17.14 4.17 17.76 4.39 18.54 4.39C19.32 4.39 19.93 4.17 19.93 3.84C19.93 3.57 19.32 3.29 18.54 3.29ZM4.31 6.1C4.31 5.33 5.98 5.11 11.56 5.22C19.15 5.33 19.93 5.44 19.93 6.04C19.93 6.37 16.98 6.59 12.12 6.59C7.82 6.59 4.31 6.37 4.31 6.1ZM4.31 10.99L4.31 15.72C4.31 19.78 4.42 20.39 5.2 20.11C5.7 19.95 6.93 19.78 7.93 19.78C8.85 19.78 9.31 19.78 9.48 19.56C9.65 19.35 9.53 18.91 9.27 18.02C8.99 17.03 8.77 16.21 8.77 16.15C8.77 16.1 9.55 15.28 10.5 14.34L12.23 12.53L13.85 14.07C15.52 15.61 15.58 16.26 14.58 18.9C14.3 19.62 14.69 19.78 17.09 19.78L19.93 19.78L19.93 10.99L4.31 10.99ZM18.82 15.39C18.82 13.9 18.59 12.64 18.26 12.64C17.98 12.64 17.7 13.9 17.7 15.39C17.7 16.92 17.98 18.13 18.26 18.13C18.59 18.13 18.82 16.92 18.82 15.39ZM4.31 21.98C4.31 21.38 4.59 20.88 4.86 20.88C5.2 20.88 5.42 21.38 5.42 21.98C5.42 22.59 5.2 23.08 4.86 23.08C4.59 23.08 4.31 22.59 4.31 21.98ZM20.1 20.66C19.54 20.11 18.82 20.94 18.82 22.04C18.82 22.59 19.04 23.08 19.32 23.08C19.88 23.08 20.49 21.1 20.1 20.66ZM10.45 18.9C10.45 17.91 12.73 15.88 13.35 16.32C13.63 16.43 13.79 17.25 13.79 18.19C13.79 19.62 13.63 19.78 12.12 19.78C10.95 19.78 10.45 19.51 10.45 18.9ZM0.96 7.69L0.96 13.74C0.96 19.4 1.01 19.78 2.07 19.78C3.02 19.78 3.13 19.34 3.3 15L3.47 10.16L20.77 10.16L20.94 15C21.11 19.34 21.22 19.78 22.17 19.78C23.23 19.78 23.28 19.4 23.28 13.74L23.28 7.69L0.96 7.69Z" fill="#141414" fill-opacity="1.000000" fill-rule="evenodd"/>
	<path d="M6.43 22.42C6.43 22.39 6.44 22.36 6.44 22.32C6.49 21.94 6.53 21.66 6.67 21.44C7.12 20.77 8.6 20.77 14.63 20.77C17.25 20.77 17.42 20.83 17.7 22.31C17.92 23.58 18.32 23.91 19.38 23.91C20.49 23.91 20.83 23.58 20.94 22.42C21.11 21.27 21.44 20.94 22.61 20.77L24.12 20.61L24.12 6.86L22.39 6.59C20.88 6.37 20.72 6.1 20.72 4.39L20.77 2.47L16.7 2.3C13.35 2.19 12.68 1.97 12.79 1.26C12.9 0.76 12.62 0.27 12.29 0.16C11.84 -0.01 11.56 0.38 11.56 1.04C11.56 1.41 11.56 1.67 11.44 1.86C11.15 2.31 10.17 2.33 6.82 2.41L3.47 2.47L3.3 4.5C3.13 6.26 2.91 6.53 1.63 6.7L0.12 6.86L0.12 20.61L1.68 20.77C2.8 20.94 3.19 21.27 3.19 22.2C3.19 23.8 3.69 24.29 5.14 24.07C5.87 23.96 6.32 23.41 6.43 22.42L6.44 22.32M4.86 20.88C5.2 20.88 5.42 21.38 5.42 21.98C5.42 22.59 5.2 23.08 4.86 23.08C4.59 23.08 4.31 22.59 4.31 21.98C4.31 21.38 4.59 20.88 4.86 20.88ZM20.1 20.66C20.49 21.1 19.88 23.08 19.32 23.08C19.04 23.08 18.82 22.59 18.82 22.04C18.82 20.94 19.54 20.11 20.1 20.66ZM4.31 10.99L19.93 10.99L19.93 19.78L17.09 19.78C14.69 19.78 14.3 19.62 14.58 18.9C15.58 16.26 15.52 15.61 13.85 14.07L12.23 12.53L10.5 14.34C9.55 15.28 8.77 16.1 8.77 16.15C8.77 16.21 8.99 17.03 9.27 18.02C9.53 18.91 9.65 19.35 9.48 19.56C9.31 19.78 8.85 19.78 7.93 19.78C6.93 19.78 5.7 19.95 5.2 20.11C4.42 20.39 4.31 19.78 4.31 15.72L4.31 10.99ZM18.26 12.64C17.98 12.64 17.7 13.9 17.7 15.39C17.7 16.92 17.98 18.13 18.26 18.13C18.59 18.13 18.82 16.92 18.82 15.39C18.82 13.9 18.59 12.64 18.26 12.64ZM0.96 7.69L23.28 7.69L23.28 13.74C23.28 19.4 23.23 19.78 22.17 19.78C21.22 19.78 21.11 19.34 20.94 15L20.77 10.16L3.47 10.16L3.3 15C3.13 19.34 3.02 19.78 2.07 19.78C1.01 19.78 0.96 19.4 0.96 13.74L0.96 7.69ZM13.35 16.32C13.63 16.43 13.79 17.25 13.79 18.19C13.79 19.62 13.63 19.78 12.12 19.78C10.95 19.78 10.45 19.51 10.45 18.9C10.45 17.91 12.73 15.88 13.35 16.32ZM11.56 5.22C19.15 5.33 19.93 5.44 19.93 6.04C19.93 6.37 16.98 6.59 12.12 6.59C7.82 6.59 4.31 6.37 4.31 6.1C4.31 5.33 5.98 5.11 11.56 5.22ZM5.42 3.29C6.04 3.29 6.54 3.57 6.54 3.84C6.54 4.17 6.04 4.39 5.42 4.39C4.81 4.39 4.31 4.17 4.31 3.84C4.31 3.57 4.81 3.29 5.42 3.29ZM8.49 3.29C9.27 3.29 9.89 3.57 9.89 3.84C9.89 4.17 9.27 4.39 8.49 4.39C7.71 4.39 7.1 4.17 7.1 3.84C7.1 3.57 7.71 3.29 8.49 3.29ZM13.24 3.51C13.24 4.12 12.73 4.39 11.79 4.39C10.89 4.39 10.45 4.12 10.56 3.73C10.95 2.63 13.24 2.47 13.24 3.51ZM15.19 3.29C15.97 3.29 16.59 3.57 16.59 3.84C16.59 4.17 15.97 4.39 15.19 4.39C14.41 4.39 13.79 4.17 13.79 3.84C13.79 3.57 14.41 3.29 15.19 3.29ZM18.54 3.29C19.32 3.29 19.93 3.57 19.93 3.84C19.93 4.17 19.32 4.39 18.54 4.39C17.76 4.39 17.14 4.17 17.14 3.84C17.14 3.57 17.76 3.29 18.54 3.29Z" stroke="#141414" stroke-opacity="1.000000" stroke-width="0.250000"/>
</svg>
