<svg width="20.604492" height="32.599998" viewBox="0 0 20.6045 32.6" fill="none" xmlns="http://www.w3.org/2000/svg" xmlns:xlink="http://www.w3.org/1999/xlink">
	<desc>
			Created with Pixso.
	</desc>
	<defs/>
	<path id="Vector" d="M0.29 32.3L20.29 32.3L19.93 7.68L12.6 7.68L12.6 0.3L7.68 0.3L7.68 7.68L0.29 7.68L0.29 32.3ZM1.03 20.17L1.22 8.6L19.37 8.23L19.37 31.68L0.91 31.68L1.03 20.17ZM13.59 12.97L15.68 13.96L15.68 27.99L4.6 27.99L4.6 13.9L6.45 12.91C8.73 11.74 10.94 11.74 13.59 12.97ZM5.22 14.45L5.22 20.91C5.22 27.06 5.28 27.37 6.51 27.37C7.68 27.37 7.74 27.13 7.37 24.97C6.94 22.26 7.8 19.99 9.28 19.99C10.02 19.99 10.2 19.62 9.89 18.39C9.59 17.28 9.71 16.91 10.2 17.22C11.37 18.02 12.6 21.65 12.6 24.6C12.6 27 12.79 27.37 13.83 27.37C15.06 27.37 15.13 27.06 14.94 20.79L14.76 14.14L12.17 13.22C9.83 12.42 9.34 12.48 7.37 13.4L5.22 14.45ZM8.29 25.83C8.29 24.66 10.08 21.83 10.82 21.83C11.13 21.83 11.37 22.94 11.37 24.3C11.37 26.51 11.25 26.76 9.83 26.76C8.85 26.76 8.29 26.39 8.29 25.83ZM10.33 1.03C8.73 1.22 8.6 1.46 8.42 4.48L8.23 7.68L10.08 7.68C10.85 7.68 11.31 7.68 11.58 7.45C11.99 7.12 11.99 6.29 11.99 4.23C11.99 0.91 11.99 0.85 10.33 1.03Z" fill="#141414" fill-opacity="1.000000" fill-rule="evenodd"/>
	<path id="Vector" d="M1.22 8.6L19.37 8.23L19.37 31.68L0.91 31.68L1.03 20.17L1.22 8.6ZM13.59 12.97C10.94 11.74 8.73 11.74 6.45 12.91L4.6 13.9L4.6 27.99L15.68 27.99L15.68 13.96L13.59 12.97ZM5.22 14.45L7.37 13.4C9.34 12.48 9.83 12.42 12.17 13.22L14.76 14.14L14.94 20.79C15.13 27.06 15.06 27.37 13.83 27.37C12.79 27.37 12.6 27 12.6 24.6C12.6 21.65 11.37 18.02 10.2 17.22C9.71 16.91 9.59 17.28 9.89 18.39C10.2 19.62 10.02 19.99 9.28 19.99C7.8 19.99 6.94 22.26 7.37 24.97C7.74 27.13 7.68 27.37 6.51 27.37C5.28 27.37 5.22 27.06 5.22 20.91L5.22 14.45ZM10.82 21.83C11.13 21.83 11.37 22.94 11.37 24.3C11.37 26.51 11.25 26.76 9.83 26.76C8.85 26.76 8.29 26.39 8.29 25.83C8.29 24.66 10.08 21.83 10.82 21.83ZM10.33 1.03C11.99 0.85 11.99 0.91 11.99 4.23C11.99 6.29 11.99 7.12 11.58 7.45C11.31 7.68 10.85 7.68 10.08 7.68L8.23 7.68L8.42 4.48C8.6 1.46 8.73 1.22 10.33 1.03ZM19.93 7.68L12.6 7.68L12.6 0.3L7.68 0.3L7.68 7.68L0.29 7.68L0.29 32.3L20.29 32.3L19.93 7.68Z" stroke="#141414" stroke-opacity="1.000000" stroke-width="0.600000"/>
</svg>
