<svg width="24.852051" height="22.855957" viewBox="0 0 24.8521 22.856" fill="none" xmlns="http://www.w3.org/2000/svg" xmlns:xlink="http://www.w3.org/1999/xlink">
	<desc>
			Created with Pixso.
	</desc>
	<defs/>
	<path id="Vector" d="M24.42 13.5C24.42 15.9 24.08 16.82 22.25 19.22L20.08 22.08L5.84 22.42L3.72 20.25C2.64 19.05 1.38 17.5 1.04 16.82C0.12 15.04 0.24 10.81 1.32 9.32C2.18 8.12 2.52 8.06 12.42 8.06C22.31 8.06 22.65 8.12 23.51 9.32C24.08 10.07 24.42 11.78 24.42 13.5ZM6.07 4.06C1.72 4.06 1.44 4.12 1.72 5.2C1.89 5.83 1.95 6.35 1.89 6.35C1.44 6.35 0.98 5.43 0.98 4.57C0.98 3.66 1.61 3.49 5.67 3.37C10.13 3.2 10.41 3.14 11.1 1.66C11.96 -0.12 13.62 0.06 14.42 1.94C14.93 3.09 15.5 3.2 19.45 3.37C23.68 3.54 23.85 3.6 23.85 4.92C23.85 5.72 23.62 6.35 23.34 6.35C23.05 6.35 22.94 5.83 23.11 5.2C23.39 4.12 23.11 4.06 19.1 4.06C15.1 4.06 14.7 3.94 13.73 2.57L12.64 1.08L11.67 2.57C10.76 3.94 10.41 4.06 6.07 4.06ZM1.27 12.07C0.81 14.7 1.72 16.99 4.3 19.68L6.35 21.79L12.7 21.79C19.73 21.79 19.96 21.68 22.65 17.22C24.02 14.99 24.08 13.84 23.22 10.81L22.65 8.64L12.76 8.64C1.89 8.64 1.89 8.64 1.27 12.07Z" fill="#141414" fill-opacity="1.000000" fill-rule="evenodd"/>
	<path id="Vector" d="M24.42 13.5C24.42 11.78 24.08 10.07 23.51 9.32C22.65 8.12 22.31 8.06 12.42 8.06C2.52 8.06 2.18 8.12 1.32 9.32C0.24 10.81 0.12 15.04 1.04 16.82C1.38 17.5 2.64 19.05 3.72 20.25L5.84 22.42L20.08 22.08L22.25 19.22C24.08 16.82 24.42 15.9 24.42 13.5ZM6.07 4.06C10.41 4.06 10.76 3.94 11.67 2.57L12.64 1.08L13.73 2.57C14.7 3.94 15.1 4.06 19.1 4.06C23.11 4.06 23.39 4.12 23.11 5.2C22.94 5.83 23.05 6.35 23.34 6.35C23.62 6.35 23.85 5.72 23.85 4.92C23.85 3.6 23.68 3.54 19.45 3.37C15.5 3.2 14.93 3.09 14.42 1.94C13.62 0.06 11.96 -0.12 11.1 1.66C10.41 3.14 10.13 3.2 5.67 3.37C1.61 3.49 0.98 3.66 0.98 4.57C0.98 5.43 1.44 6.35 1.89 6.35C1.95 6.35 1.89 5.83 1.72 5.2C1.44 4.12 1.72 4.06 6.07 4.06ZM1.27 12.07C1.89 8.64 1.89 8.64 12.76 8.64L22.65 8.64L23.22 10.81C24.08 13.84 24.02 14.99 22.65 17.22C19.96 21.68 19.73 21.79 12.7 21.79L6.35 21.79L4.3 19.68C1.72 16.99 0.81 14.7 1.27 12.07Z" stroke="#141414" stroke-opacity="1.000000" stroke-width="0.850000"/>
</svg>
