<svg width="20.749512" height="24.750000" viewBox="0 0 20.7495 24.75" fill="none" xmlns="http://www.w3.org/2000/svg" xmlns:xlink="http://www.w3.org/1999/xlink">
	<desc>
			Created with Pixso.
	</desc>
	<defs/>
	<path id="Vector" d="M19.94 12C19.01 12.14 18.97 12.37 18.97 18.28L18.97 24.37L2.53 24.37L2.25 12.14L1.04 12C-0.12 11.86 0.02 11.68 3.04 8.82L6.2 5.77L6.2 0.37L15.58 0.37L15.21 6.42L18.09 9.14C20.5 11.45 20.78 11.86 19.94 12ZM6.66 0.83L6.66 5.91L14.56 5.91L14.56 0.83L6.66 0.83ZM1.37 11.45L6.38 6.37L14.37 6.37L19.39 11.45L1.37 11.45ZM4.25 23.82L5.5 23.68L5.5 13.99L15.49 13.71L15.49 23.91L18.27 23.91L18.27 11.91L2.95 11.91L2.95 23.95L4.25 23.82ZM15.02 23.91L13.77 23.91C12.51 23.91 12.47 23.82 12.42 21.46C12.42 19.2 11.26 16.06 10.42 16.06C10.24 16.06 10.19 16.71 10.29 17.54C10.47 18.69 10.38 18.92 9.82 18.69C8.75 18.32 7.87 20.26 8.24 22.25C8.52 23.82 8.47 23.91 7.36 23.91L6.2 23.91L6.2 14.22L15.02 14.22L15.02 23.91ZM11.12 20.22C10.47 20.22 8.98 22.11 8.98 22.99C8.98 23.22 9.64 23.45 10.38 23.45C11.68 23.45 11.77 23.31 11.77 21.83C11.77 20.77 11.54 20.22 11.12 20.22Z" fill="#141414" fill-opacity="1.000000" fill-rule="evenodd"/>
	<path id="Vector" d="M19.94 12C20.78 11.86 20.5 11.45 18.09 9.14L15.21 6.42L15.58 0.37L6.2 0.37L6.2 5.77L3.04 8.82C0.02 11.68 -0.12 11.86 1.04 12L2.25 12.14L2.53 24.37L18.97 24.37L18.97 18.28C18.97 12.37 19.01 12.14 19.94 12ZM4.25 23.82L2.95 23.95L2.95 11.91L18.27 11.91L18.27 23.91L15.49 23.91L15.49 13.71L5.5 13.99L5.5 23.68L4.25 23.82ZM13.77 23.91C12.51 23.91 12.47 23.82 12.42 21.46C12.42 19.2 11.26 16.06 10.42 16.06C10.24 16.06 10.19 16.71 10.29 17.54C10.47 18.69 10.38 18.92 9.82 18.69C8.75 18.32 7.87 20.26 8.24 22.25C8.52 23.82 8.47 23.91 7.36 23.91L6.2 23.91L6.2 14.22L15.02 14.22L15.02 23.91L13.77 23.91ZM11.12 20.22C11.54 20.22 11.77 20.77 11.77 21.83C11.77 23.31 11.68 23.45 10.38 23.45C9.64 23.45 8.98 23.22 8.98 22.99C8.98 22.11 10.47 20.22 11.12 20.22ZM6.38 6.37L14.37 6.37L19.39 11.45L1.37 11.45L6.38 6.37ZM6.66 0.83L14.56 0.83L14.56 5.91L6.66 5.91L6.66 0.83Z" stroke="#141414" stroke-opacity="1.000000" stroke-width="0.750000"/>
</svg>
