<svg width="48.000000" height="48.000000" viewBox="0 0 48 48" fill="none" xmlns="http://www.w3.org/2000/svg" xmlns:xlink="http://www.w3.org/1999/xlink">
	<desc>
			Created with Pixso.
	</desc>
	<defs>
		<clipPath id="clip2496_3357">
			<rect id="Frame" rx="23.000000" width="46.000000" height="46.000000" transform="translate(1.000000 1.000000)" fill="white" fill-opacity="0"/>
		</clipPath>
	</defs>
	<g clip-path="url(#clip2496_3357)">
		<path id="Vector" d="M27.66 17.49L33.65 17.49L33.65 18.94L27.66 18.94L27.66 17.49ZM21.66 23.24C22.99 22.61 23.68 21.64 23.68 20.15C23.68 17.21 21.49 16.5 18.96 16.5L12 16.5L12 31.28L19.15 31.28C21.84 31.28 24.36 29.99 24.36 26.98C24.36 25.13 23.48 23.76 21.66 23.24ZM15.24 19.02L18.29 19.02C19.46 19.02 20.52 19.34 20.52 20.71C20.52 21.96 19.7 22.47 18.54 22.47L15.24 22.47L15.24 19.02ZM18.71 28.77L15.24 28.77L15.24 24.7L18.78 24.7C20.21 24.7 21.11 25.29 21.11 26.81C21.11 28.3 20.03 28.77 18.71 28.77ZM36 26.08C36 22.91 34.14 20.27 30.79 20.27C27.54 20.27 25.32 22.73 25.32 25.94C25.32 29.27 27.42 31.56 30.79 31.56C33.35 31.56 35 30.41 35.8 27.96L33.21 27.96C32.92 28.87 31.78 29.36 30.89 29.36C29.16 29.36 28.26 28.35 28.26 26.63L35.97 26.63C35.98 26.46 36 26.27 36 26.08ZM28.26 24.78C28.36 23.37 29.29 22.49 30.7 22.49C32.18 22.49 32.91 23.36 33.04 24.78L28.26 24.78Z" fill="#F7752A" fill-opacity="1.000000" fill-rule="nonzero"/>
	</g>
	<rect id="Frame" rx="23.000000" width="46.000000" height="46.000000" transform="translate(1.000000 1.000000)" stroke="#F7752A" stroke-opacity="1.000000" stroke-width="2.000000"/>
</svg>
