<svg width="48.000000" height="48.000000" viewBox="0 0 48 48" fill="none" xmlns="http://www.w3.org/2000/svg" xmlns:xlink="http://www.w3.org/1999/xlink">
	<desc>
			Created with Pixso.
	</desc>
	<defs>
		<clipPath id="clip2496_3355">
			<rect id="Frame" rx="23.000000" width="46.000000" height="46.000000" transform="translate(1.000000 1.000000)" fill="white" fill-opacity="0"/>
		</clipPath>
	</defs>
	<g clip-path="url(#clip2496_3355)">
		<path id="Vector" d="M23.99 21.16C22.16 21.16 20.66 22.66 20.66 24.5C20.66 26.33 22.16 27.83 23.99 27.83C25.83 27.83 27.33 26.33 27.33 24.5C27.33 22.66 25.83 21.16 23.99 21.16ZM33.99 24.5C33.99 23.11 34.01 21.75 33.93 20.37C33.85 18.77 33.49 17.35 32.32 16.17C31.14 15 29.72 14.64 28.12 14.56C26.74 14.48 25.37 14.5 24 14.5C22.61 14.5 21.25 14.48 19.87 14.56C18.27 14.64 16.85 15 15.67 16.17C14.5 17.35 14.14 18.77 14.06 20.37C13.98 21.75 14 23.12 14 24.5C14 25.87 13.98 27.24 14.06 28.62C14.14 30.22 14.5 31.64 15.67 32.82C16.85 33.99 18.27 34.35 19.87 34.43C21.25 34.51 22.62 34.49 24 34.49C25.38 34.49 26.74 34.51 28.12 34.43C29.72 34.35 31.14 33.99 32.32 32.82C33.49 31.64 33.85 30.22 33.93 28.62C34.01 27.24 33.99 25.88 33.99 24.5ZM23.99 29.63C21.15 29.63 18.86 27.33 18.86 24.5C18.86 21.66 21.15 19.36 23.99 19.36C26.83 19.36 29.12 21.66 29.12 24.5C29.12 27.33 26.83 29.63 23.99 29.63ZM29.33 20.35C28.67 20.35 28.14 19.82 28.14 19.15C28.14 18.49 28.67 17.96 29.33 17.96C30 17.96 30.53 18.49 30.53 19.15C30.53 19.31 30.5 19.47 30.44 19.61C30.38 19.76 30.29 19.89 30.18 20C30.07 20.11 29.94 20.2 29.79 20.26C29.65 20.32 29.49 20.35 29.33 20.35Z" fill="#F7752A" fill-opacity="1.000000" fill-rule="evenodd"/>
	</g>
	<rect id="Frame" rx="23.000000" width="46.000000" height="46.000000" transform="translate(1.000000 1.000000)" stroke="#F7752A" stroke-opacity="1.000000" stroke-width="2.000000"/>
</svg>
