<svg width="48.000000" height="48.000000" viewBox="0 0 48 48" fill="none" xmlns="http://www.w3.org/2000/svg" xmlns:xlink="http://www.w3.org/1999/xlink">
	<desc>
			Created with Pixso.
	</desc>
	<defs>
		<clipPath id="clip2496_3359">
			<rect id="Frame" rx="23.000000" width="46.000000" height="46.000000" transform="translate(1.000000 1.000000)" fill="white" fill-opacity="0"/>
		</clipPath>
	</defs>
	<g clip-path="url(#clip2496_3359)">
		<path id="Vector" d="M24.8 12.5C19.87 12.5 15 15.78 15 21.11C15 24.49 16.9 26.42 18.05 26.42C18.53 26.42 18.8 25.09 18.8 24.71C18.8 24.27 17.66 23.31 17.66 21.45C17.66 17.59 20.61 14.85 24.41 14.85C27.69 14.85 30.11 16.71 30.11 20.13C30.11 22.68 29.09 27.47 25.77 27.47C24.57 27.47 23.55 26.6 23.55 25.36C23.55 23.54 24.82 21.79 24.82 19.91C24.82 16.73 20.3 17.3 20.3 21.15C20.3 21.96 20.4 22.85 20.76 23.59C20.1 26.45 18.74 30.7 18.74 33.64C18.74 34.55 18.87 35.45 18.96 36.35C19.12 36.54 19.04 36.52 19.29 36.43C21.72 33.11 21.63 32.46 22.73 28.12C23.32 29.24 24.85 29.85 26.06 29.85C31.16 29.85 33.46 24.87 33.46 20.39C33.46 15.61 29.33 12.5 24.8 12.5L24.8 12.5Z" fill="#F7752A" fill-opacity="1.000000" fill-rule="nonzero"/>
	</g>
	<rect id="Frame" rx="23.000000" width="46.000000" height="46.000000" transform="translate(1.000000 1.000000)" stroke="#F7752A" stroke-opacity="1.000000" stroke-width="2.000000"/>
</svg>
